<?xml version="1.0" encoding="UTF-8" standalone="no"?>
<!-- Created with Inkscape (http://www.inkscape.org/) -->

<svg
   width="85.832626mm"
   height="26.630108mm"
   viewBox="0 0 85.832626 26.630108"
   version="1.1"
   id="svg1"
   inkscape:version="1.3.2 (091e20e, 2023-11-25, custom)"
   sodipodi:docname="Eddy_currents_single_sheet.svg"
   xmlns:inkscape="http://www.inkscape.org/namespaces/inkscape"
   xmlns:sodipodi="http://sodipodi.sourceforge.net/DTD/sodipodi-0.dtd"
   xmlns="http://www.w3.org/2000/svg"
   xmlns:svg="http://www.w3.org/2000/svg">
  <sodipodi:namedview
     id="namedview1"
     pagecolor="#505050"
     bordercolor="#eeeeee"
     borderopacity="1"
     inkscape:showpageshadow="0"
     inkscape:pageopacity="0"
     inkscape:pagecheckerboard="0"
     inkscape:deskcolor="#505050"
     inkscape:document-units="mm"
     inkscape:zoom="1.9830387"
     inkscape:cx="175.48825"
     inkscape:cy="-43.619925"
     inkscape:window-width="2560"
     inkscape:window-height="1351"
     inkscape:window-x="-9"
     inkscape:window-y="-9"
     inkscape:window-maximized="1"
     inkscape:current-layer="layer1" />
  <defs
     id="defs1">
    <clipPath
       clipPathUnits="userSpaceOnUse"
       id="clipPath97">
      <path
         d="M 0,0 H 419.53 V 595.28 H 0 Z"
         id="path97" />
    </clipPath>
    <clipPath
       clipPathUnits="userSpaceOnUse"
       id="clipPath95">
      <path
         d="M 0,0 H 419.53 V 595.28 H 0 Z"
         id="path95" />
    </clipPath>
    <clipPath
       clipPathUnits="userSpaceOnUse"
       id="clipPath93">
      <path
         d="M 0,0 H 419.53 V 595.28 H 0 Z"
         transform="translate(-240.23901,-307.46801)"
         id="path93" />
    </clipPath>
    <clipPath
       clipPathUnits="userSpaceOnUse"
       id="clipPath91">
      <path
         d="M 0,0 H 419.53 V 595.28 H 0 Z"
         id="path91" />
    </clipPath>
    <clipPath
       clipPathUnits="userSpaceOnUse"
       id="clipPath89">
      <path
         d="M 0,0 H 419.53 V 595.28 H 0 Z"
         transform="translate(-223.53901,-280.034)"
         id="path89" />
    </clipPath>
    <clipPath
       clipPathUnits="userSpaceOnUse"
       id="clipPath87">
      <path
         d="M 0,0 H 419.53 V 595.28 H 0 Z"
         transform="translate(-215.10501,-285.572)"
         id="path87" />
    </clipPath>
    <clipPath
       clipPathUnits="userSpaceOnUse"
       id="clipPath85">
      <path
         d="m 119.34,275.603 h 4.8564 v 12.226 H 119.34 Z"
         transform="matrix(1,0,-0.34200706,-1,-24.003417,278.75561)"
         id="path85" />
    </clipPath>
    <clipPath
       clipPathUnits="userSpaceOnUse"
       id="clipPath83">
      <path
         d="m 125.559,261.673 h 6.1344 v 12.226 h -6.1344 z"
         transform="matrix(1,0,-0.34200706,-1,-35.455844,264.82541)"
         id="path83" />
    </clipPath>
    <clipPath
       clipPathUnits="userSpaceOnUse"
       id="clipPath81">
      <path
         d="m 97.273,280.758 h 5.3676 v 12.269 H 97.273 Z"
         transform="matrix(1,0,-0.34200706,-1,-0.29026325,283.56941)"
         id="path81" />
    </clipPath>
    <clipPath
       clipPathUnits="userSpaceOnUse"
       id="clipPath79">
      <path
         d="M 0,0 H 419.53 V 595.28 H 0 Z"
         id="path79" />
    </clipPath>
    <clipPath
       clipPathUnits="userSpaceOnUse"
       id="clipPath77">
      <path
         d="M 0,0 H 419.53 V 595.28 H 0 Z"
         transform="translate(-104.43,-266.615)"
         id="path77" />
    </clipPath>
    <clipPath
       clipPathUnits="userSpaceOnUse"
       id="clipPath75">
      <path
         d="M 0,0 H 419.53 V 595.28 H 0 Z"
         id="path75" />
    </clipPath>
    <clipPath
       clipPathUnits="userSpaceOnUse"
       id="clipPath73">
      <path
         d="M 0,0 H 419.53 V 595.28 H 0 Z"
         transform="translate(-296.30001,-246.72001)"
         id="path73" />
    </clipPath>
    <clipPath
       clipPathUnits="userSpaceOnUse"
       id="clipPath71">
      <path
         d="M 0,0 H 419.53 V 595.28 H 0 Z"
         transform="translate(-104.34501,-288.809)"
         id="path71" />
    </clipPath>
    <clipPath
       clipPathUnits="userSpaceOnUse"
       id="clipPath69">
      <path
         d="M 0,0 H 419.53 V 595.28 H 0 Z"
         transform="translate(-296.25801,-288.809)"
         id="path69" />
    </clipPath>
    <clipPath
       clipPathUnits="userSpaceOnUse"
       id="clipPath67">
      <path
         d="M 0,0 H 419.53 V 595.28 H 0 Z"
         transform="translate(-103.74801,-289.10701)"
         id="path67" />
    </clipPath>
    <clipPath
       clipPathUnits="userSpaceOnUse"
       id="clipPath64">
      <path
         d="M 0,0 H 419.53 V 595.28 H 0 Z"
         id="path64" />
    </clipPath>
    <clipPath
       clipPathUnits="userSpaceOnUse"
       id="clipPath61">
      <path
         d="M 0,0 H 419.53 V 595.28 H 0 Z"
         id="path61" />
    </clipPath>
    <clipPath
       clipPathUnits="userSpaceOnUse"
       id="clipPath45">
      <path
         d="M 0,0 H 419.53 V 595.28 H 0 Z"
         id="path45" />
    </clipPath>
    <clipPath
       clipPathUnits="userSpaceOnUse"
       id="clipPath41">
      <path
         d="M 0,0 H 419.53 V 595.28 H 0 Z"
         transform="matrix(1,0,0,-0.99958672,-237.25651,52.35765)"
         id="path41" />
    </clipPath>
  </defs>
  <g
     inkscape:label="Layer 1"
     inkscape:groupmode="layer"
     id="layer1"
     transform="translate(-51.329173,-210.07916)">
    <text
       id="text40"
       xml:space="preserve"
       transform="matrix(0.35277732,0,0,0.35292319,264.44474,321.64877)"
       clip-path="url(#clipPath41)"><tspan
         style="font-variant:normal;font-weight:normal;font-size:6.0467px;font-family:Cambria;writing-mode:lr-tb;fill:#000000;fill-opacity:1;fill-rule:nonzero;stroke:none"
         x="0"
         y="0"
         id="tspan40">஺</tspan></text>
    <path
       id="path44"
       d="m 107.114,250.469 h -0.51119 v 2.13 h 0.51119 z m -0.512,0 z m 0.512,3.749 h -0.51119 v 2.13 h 0.51119 z m -0.512,0 z m 0.512,3.706 h -0.51119 v 2.13 h 0.51119 z m -0.512,0 z m 0.512,3.749 h -0.51119 v 2.13 h 0.51119 z m -0.512,0 z m 0.512,3.706 h -0.51119 v 2.13 h 0.51119 z m -0.512,0 z m 0.512,3.749 h -0.51119 v 2.13 h 0.51119 z m -0.512,0 z m 0.512,3.706 h -0.51119 v 2.13 h 0.51119 z m -0.512,0 z m 0.512,3.749 h -0.51119 v 2.13 h 0.51119 z m -0.512,0 z m 0.512,3.706 h -0.51119 v 2.13 h 0.51119 z m -0.512,0 z m 1.364,2.897 h 2.13 v -0.5538 h -2.13 z m 3.706,0 h 2.13 v -0.5538 h -2.13 z m 3.749,0 h 2.13 v -0.5538 h -2.13 z m 3.706,0 h 2.13 v -0.5538 h -2.13 z m 3.749,0 h 2.13 v -0.5538 h -2.13 z m 3.706,0 h 2.13 v -0.5538 h -2.13 z m 3.749,0 h 2.13 v -0.5538 h -2.13 z m 3.706,0 h 2.13 v -0.5538 h -2.13 z m 3.749,0 h 2.13 v -0.5538 h -2.13 z m 3.706,0 h 2.13 v -0.5538 h -2.13 z m 3.749,0 h 2.13 v -0.5538 h -2.13 z m 3.706,0 h 2.13 v -0.5538 h -2.13 z m 3.749,0 h 2.13 v -0.5538 h -2.13 z m 3.706,0 h 2.13 v -0.5538 h -2.13 z m 3.749,0 h 2.13 v -0.5538 h -2.13 z m 3.706,0 h 2.13 v -0.5538 h -2.13 z m 3.749,0 h 2.13 v -0.5538 h -2.13 z m 3.706,0 h 2.13 v -0.5538 h -2.13 z m 3.749,0 h 2.13 v -0.5538 h -2.13 z m 3.706,0 h 2.13 v -0.5538 h -2.13 z m 3.749,0 h 2.13 v -0.5538 h -2.13 z m 3.706,0 h 2.13 v -0.5538 h -2.13 z m 3.749,0 h 2.13 v -0.5538 h -2.13 z m 3.706,0 h 2.13 v -0.5538 h -2.13 z m 3.749,0 h 2.13 v -0.5538 h -2.13 z m 3.706,0 h 2.13 v -0.5538 h -2.13 z m 3.749,0 h 2.13 v -0.5538 h -2.13 z m 3.706,0 h 2.13 v -0.5538 h -2.13 z m 3.749,0 h 2.13 v -0.5538 h -2.13 z m 3.706,0 h 2.13 v -0.5538 h -2.13 z m 3.749,0 h 2.13 v -0.5538 h -2.13 z m 3.706,0 h 2.13 v -0.5538 h -2.13 z m 3.749,0 h 2.13 v -0.5538 h -2.13 z m 3.706,0 h 2.13 v -0.5538 h -2.13 z m 3.749,0 h 2.13 v -0.5538 h -2.13 z m 3.706,0 h 2.13 v -0.5538 h -2.13 z m 3.749,0 h 2.13 v -0.5538 h -2.13 z m 3.706,0 h 2.13 v -0.5538 h -2.13 z m 3.749,0 h 2.13 v -0.5538 h -2.13 z m 3.706,0 h 2.13 v -0.5538 h -2.13 z m 3.749,0 h 2.13 v -0.5538 h -2.13 z m 3.706,0 h 2.13 v -0.5538 h -2.13 z m 3.749,0 h 2.13 v -0.5538 h -2.13 z m 3.706,0 h 2.13 v -0.5538 h -2.13 z m 3.749,0 h 2.13 v -0.5538 h -2.13 z m 3.706,0 h 2.13 v -0.5538 h -2.13 z m 3.749,0 h 2.13 v -0.5538 h -2.13 z m 3.706,0 h 2.13 v -0.5538 h -2.13 z m 3.749,0 h 2.13 v -0.5538 h -2.13 z m 3.706,0 h 2.13 v -0.5538 h -2.13 z m 2.897,-0.852 h 0.5112 v -2.13 h -0.5112 z m 0.511,0 z m -0.511,-3.706 h 0.5112 v -2.13 h -0.5112 z m 0.511,0 z m -0.511,-3.749 h 0.5112 v -2.13 h -0.5112 z m 0.511,0 z m -0.511,-3.706 h 0.5112 v -2.13 h -0.5112 z m 0.511,0 z m -0.511,-3.749 h 0.5112 v -2.13 h -0.5112 z m 0.511,0 z m -0.511,-3.706 h 0.5112 v -2.13 h -0.5112 z m 0.511,0 z m -0.511,-3.749 h 0.5112 v -2.13 h -0.5112 z m 0.511,0 z m -0.511,-3.706 h 0.5112 v -2.13 h -0.5112 z m 0.511,0 z m 0,-3.749 v -2.045 c 0,-0.128 -0.085,-0.255 -0.256,-0.255 h -0.085 v 0.553 h 0.085 l -0.255,-0.298 v 2.045 z m -1.96,-2.3 h -2.13 v 0.5538 h 2.13 z m -3.706,0 h -2.13 v 0.5538 h 2.13 z m -3.749,0 h -2.13 v 0.5538 h 2.13 z m -3.706,0 h -2.13 v 0.5538 h 2.13 z m -3.749,0 H 275 v 0.5538 h 2.13 z m -3.706,0 h -2.13 v 0.5538 h 2.13 z m -3.749,0 h -2.13 v 0.5538 h 2.13 z m -3.706,0 h -2.13 v 0.5538 h 2.13 z m -3.749,0 h -2.13 v 0.5538 h 2.13 z m -3.706,0 h -2.13 v 0.5538 h 2.13 z m -3.749,0 h -2.13 v 0.5538 h 2.13 z m -3.706,0 h -2.13 v 0.5538 h 2.13 z m -3.749,0 h -2.13 v 0.5538 h 2.13 z m -3.706,0 h -2.13 v 0.5538 h 2.13 z m -3.749,0 h -2.13 v 0.5538 h 2.13 z m -3.706,0 h -2.13 v 0.5538 h 2.13 z m -3.749,0 h -2.13 v 0.5538 h 2.13 z m -3.706,0 h -2.13 v 0.5538 h 2.13 z m -3.749,0 h -2.13 v 0.5538 h 2.13 z m -3.706,0 h -2.13 v 0.5538 h 2.13 z m -3.749,0 h -2.13 v 0.5538 h 2.13 z m -3.706,0 h -2.13 v 0.5538 h 2.13 z m -3.749,0 h -2.13 v 0.5538 h 2.13 z m -3.706,0 h -2.13 v 0.5538 h 2.13 z m -3.749,0 h -2.13 v 0.5538 h 2.13 z m -3.706,0 h -2.13 v 0.5538 h 2.13 z m -3.749,0 h -2.13 v 0.5538 h 2.13 z m -3.706,0 h -2.13 v 0.5538 h 2.13 z m -3.749,0 h -2.13 v 0.5538 h 2.13 z m -3.706,0 h -2.13 v 0.5538 h 2.13 z m -3.749,0 h -2.13 v 0.5538 h 2.13 z m -3.706,0 h -2.13 v 0.5538 h 2.13 z m -3.749,0 h -2.13 v 0.5538 h 2.13 z m -3.706,0 h -2.13 v 0.5538 h 2.13 z m -3.749,0 h -2.13 v 0.5538 h 2.13 z m -3.706,0 h -2.13 v 0.5538 h 2.13 z m -3.749,0 h -2.13 v 0.5538 h 2.13 z m -3.706,0 h -2.13 v 0.5538 h 2.13 z m -3.749,0 h -2.13 v 0.5538 h 2.13 z m -3.706,0 h -2.13 v 0.5538 h 2.13 z m -3.749,0 h -2.13 v 0.5538 h 2.13 z m -3.706,0 h -2.13 v 0.5538 h 2.13 z m -3.749,0 h -2.13 v 0.5538 h 2.13 z m -3.706,0 h -2.13 v 0.5538 h 2.13 z m -3.749,0 h -2.13 v 0.5538 h 2.13 z m -3.706,0 h -2.13 v 0.5538 h 2.13 z m -3.749,0 h -2.13 v 0.5538 h 2.13 z m -3.706,0 h -2.13 v 0.5538 h 2.13 z m -3.749,0 h -2.13 v 0.5538 h 2.13 z m -3.706,0 h -2.13 v 0.5538 h 2.13 z"
       style="fill:#000000;fill-opacity:1;fill-rule:nonzero;stroke:none"
       transform="matrix(0.35277732,0,0,-0.35277732,16.703803,323.74649)"
       clip-path="url(#clipPath45)" />
    <path
       id="path60"
       d="m 115.122,262.099 h -0.5112 v 2.13 h 0.5112 z m -0.511,0 z m 0.511,3.749 h -0.5112 v 2.13 h 0.5112 z m -0.511,0 z m 0,3.706 v 1.789 c 0,0.171 0.085,0.256 0.256,0.256 h 0.341 v -0.511 h -0.341 l 0.255,0.255 v -1.789 z m 2.173,2.045 h 2.13 v -0.5112 h -2.13 z m 3.749,0 h 2.13 v -0.5112 h -2.13 z m 3.706,0 h 2.13 v -0.5112 h -2.13 z m 3.749,0 h 2.13 v -0.5112 h -2.13 z m 3.706,0 h 2.13 v -0.5112 h -2.13 z m 3.749,0 h 2.13 v -0.5112 h -2.13 z m 3.706,0 h 2.13 v -0.5112 h -2.13 z m 3.749,0 h 2.13 v -0.5112 h -2.13 z m 3.706,0 h 2.13 v -0.5112 h -2.13 z m 3.749,0 h 2.13 v -0.5112 h -2.13 z m 3.706,0 h 2.13 v -0.5112 h -2.13 z m 3.749,0 h 2.13 v -0.5112 h -2.13 z m 3.706,0 h 2.13 v -0.5112 h -2.13 z m 3.749,0 h 2.13 v -0.5112 h -2.13 z m 3.706,0 h 2.13 v -0.5112 h -2.13 z m 3.749,0 h 2.13 v -0.5112 h -2.13 z m 3.706,0 h 2.13 v -0.5112 h -2.13 z m 3.749,0 h 2.13 v -0.5112 h -2.13 z m 3.706,0 h 2.13 v -0.5112 h -2.13 z m 3.749,0 h 2.13 v -0.5112 h -2.13 z m 3.706,0 h 2.13 v -0.5112 h -2.13 z m 3.749,0 h 2.13 v -0.5112 h -2.13 z m 3.706,0 h 2.13 v -0.5112 h -2.13 z m 3.749,0 h 2.13 v -0.5112 h -2.13 z m 3.706,0 h 2.13 v -0.5112 h -2.13 z m 3.749,0 h 2.13 v -0.5112 h -2.13 z m 3.706,0 h 2.13 v -0.5112 h -2.13 z m 3.749,0 h 2.13 v -0.5112 h -2.13 z m 3.706,0 h 2.13 v -0.5112 h -2.13 z m 3.749,0 h 2.13 v -0.5112 h -2.13 z m 3.706,0 h 2.13 v -0.5112 h -2.13 z m 3.749,0 h 2.13 v -0.5112 h -2.13 z m 3.706,0 h 2.13 v -0.5112 h -2.13 z m 3.749,0 h 2.13 v -0.5112 h -2.13 z m 3.706,0 h 2.13 v -0.5112 h -2.13 z m 3.749,0 h 2.13 v -0.5112 h -2.13 z m 3.706,0 h 2.13 v -0.5112 h -2.13 z m 3.749,0 h 2.13 v -0.5112 h -2.13 z m 3.706,0 h 2.13 v -0.5112 h -2.13 z m 3.749,0 h 2.13 v -0.5112 h -2.13 z m 3.706,0 h 2.13 v -0.5112 h -2.13 z m 3.749,0 h 2.13 v -0.5112 h -2.13 z m 3.706,0 h 2.13 v -0.5112 h -2.13 z m 3.749,0 h 2.13 v -0.5112 h -2.13 z m 3.706,0 h 2.13 v -0.5112 h -2.13 z m 3.749,0 h 0.852 c 0.127,0 0.255,-0.085 0.255,-0.256 v -1.278 h -0.554 v 1.278 l 0.299,-0.255 h -0.852 z m 0.553,-3.153 h 0.5538 v -2.13 h -0.5538 z m 0.554,0 z m -0.554,-3.706 h 0.5538 v -2.13 h -0.5538 z m 0.554,0 z m -1.363,-2.897 h -2.13 v 0.5538 h 2.13 z m -3.749,0 h -2.13 v 0.5538 h 2.13 z m -3.706,0 h -2.13 v 0.5538 h 2.13 z m -3.749,0 h -2.13 v 0.5538 h 2.13 z m -3.706,0 h -2.13 v 0.5538 h 2.13 z m -3.749,0 h -2.13 v 0.5538 h 2.13 z m -3.706,0 h -2.13 v 0.5538 h 2.13 z m -3.749,0 h -2.13 v 0.5538 h 2.13 z m -3.706,0 h -2.13 v 0.5538 h 2.13 z m -3.749,0 h -2.13 v 0.5538 h 2.13 z m -3.706,0 h -2.13 v 0.5538 h 2.13 z m -3.749,0 h -2.13 v 0.5538 h 2.13 z m -3.706,0 h -2.13 v 0.5538 h 2.13 z m -3.749,0 h -2.13 v 0.5538 h 2.13 z m -3.706,0 h -2.13 v 0.5538 h 2.13 z m -3.749,0 h -2.13 v 0.5538 h 2.13 z m -3.706,0 h -2.13 v 0.5538 h 2.13 z m -3.749,0 h -2.13 v 0.5538 h 2.13 z m -3.706,0 h -2.13 v 0.5538 h 2.13 z m -3.749,0 h -2.13 v 0.5538 h 2.13 z m -3.706,0 h -2.13 v 0.5538 h 2.13 z m -3.749,0 h -2.13 v 0.5538 h 2.13 z m -3.706,0 h -2.13 v 0.5538 h 2.13 z m -3.749,0 h -2.13 v 0.5538 h 2.13 z m -3.706,0 h -2.13 v 0.5538 h 2.13 z m -3.749,0 h -2.13 v 0.5538 h 2.13 z m -3.706,0 h -2.13 v 0.5538 h 2.13 z m -3.749,0 h -2.13 v 0.5538 h 2.13 z m -3.706,0 h -2.13 v 0.5538 h 2.13 z m -3.749,0 h -2.13 v 0.5538 h 2.13 z m -3.706,0 h -2.13 v 0.5538 h 2.13 z m -3.749,0 h -2.13 v 0.5538 h 2.13 z m -3.706,0 h -2.13 v 0.5538 h 2.13 z m -3.749,0 h -2.13 v 0.5538 h 2.13 z m -3.706,0 h -2.13 v 0.5538 h 2.13 z m -3.749,0 h -2.13 v 0.5538 h 2.13 z m -3.706,0 h -2.13 v 0.5538 h 2.13 z m -3.749,0 h -2.13 v 0.5538 h 2.13 z m -3.706,0 h -2.13 v 0.5538 h 2.13 z m -3.749,0 h -2.13 v 0.5538 h 2.13 z m -3.706,0 h -2.13 v 0.5538 h 2.13 z m -3.749,0 h -2.13 v 0.5538 h 2.13 z m -3.706,0 h -2.13 v 0.5538 h 2.13 z m -3.749,0 h -2.13 v 0.5538 h 2.13 z m -3.706,0 h -2.13 v 0.5538 h 2.13 z m -3.749,0 h -1.6614 v 0.5538 h 1.6614 z"
       style="fill:#000000;fill-opacity:1;fill-rule:nonzero;stroke:none"
       transform="matrix(0.35277732,0,0,-0.35277732,16.703803,323.74649)"
       clip-path="url(#clipPath61)" />
    <path
       id="path63"
       d="m 111.97,256.902 h -0.5538 v 2.13 h 0.5538 z m -0.554,0 z m 0.554,3.749 h -0.5538 v 2.13 h 0.5538 z m -0.554,0 z m 0.554,3.706 h -0.5538 v 2.13 h 0.5538 z m -0.554,0 z m 0.554,3.749 h -0.5538 v 2.13 h 0.5538 z m -0.554,0 z m 0.554,3.706 h -0.5538 v 2.13 h 0.5538 z m -0.554,0 z m 0,3.749 v 1.874 c 0,0.17 0.128,0.256 0.298,0.256 h 0.256 v -0.512 h -0.256 l 0.256,0.256 v -1.874 z m 2.13,2.13 h 2.13 v -0.5112 h -2.13 z m 3.749,0 h 2.13 v -0.5112 h -2.13 z m 3.706,0 h 2.13 v -0.5112 h -2.13 z m 3.749,0 h 2.13 v -0.5112 h -2.13 z m 3.706,0 h 2.13 v -0.5112 h -2.13 z m 3.749,0 h 2.13 v -0.5112 h -2.13 z m 3.706,0 h 2.13 v -0.5112 h -2.13 z m 3.749,0 h 2.13 v -0.5112 h -2.13 z m 3.706,0 h 2.13 v -0.5112 h -2.13 z m 3.749,0 h 2.13 v -0.5112 h -2.13 z m 3.706,0 h 2.13 v -0.5112 h -2.13 z m 3.749,0 h 2.13 v -0.5112 h -2.13 z m 3.706,0 h 2.13 v -0.5112 h -2.13 z m 3.749,0 h 2.13 v -0.5112 h -2.13 z m 3.706,0 h 2.13 v -0.5112 h -2.13 z m 3.749,0 h 2.13 v -0.5112 h -2.13 z m 3.706,0 h 2.13 v -0.5112 h -2.13 z m 3.749,0 h 2.13 v -0.5112 h -2.13 z m 3.706,0 h 2.13 v -0.5112 h -2.13 z m 3.749,0 h 2.13 v -0.5112 h -2.13 z m 3.706,0 h 2.13 v -0.5112 h -2.13 z m 3.749,0 h 2.13 v -0.5112 h -2.13 z m 3.706,0 h 2.13 v -0.5112 h -2.13 z m 3.749,0 h 2.13 v -0.5112 h -2.13 z m 3.706,0 h 2.13 v -0.5112 h -2.13 z m 3.749,0 h 2.13 v -0.5112 h -2.13 z m 3.706,0 h 2.13 v -0.5112 h -2.13 z m 3.749,0 h 2.13 v -0.5112 h -2.13 z m 3.706,0 h 2.13 v -0.5112 h -2.13 z m 3.749,0 h 2.13 v -0.5112 h -2.13 z m 3.706,0 h 2.13 v -0.5112 h -2.13 z m 3.749,0 h 2.13 v -0.5112 h -2.13 z m 3.706,0 h 2.13 v -0.5112 h -2.13 z m 3.749,0 h 2.13 v -0.5112 h -2.13 z m 3.706,0 h 2.13 v -0.5112 h -2.13 z m 3.749,0 h 2.13 v -0.5112 h -2.13 z m 3.706,0 h 2.13 v -0.5112 h -2.13 z m 3.749,0 h 2.13 v -0.5112 h -2.13 z m 3.706,0 h 2.13 v -0.5112 h -2.13 z m 3.749,0 h 2.13 v -0.5112 h -2.13 z m 3.706,0 h 2.13 v -0.5112 h -2.13 z m 3.749,0 h 2.13 v -0.5112 h -2.13 z m 3.706,0 h 2.13 v -0.5112 h -2.13 z m 3.749,0 h 2.13 v -0.5112 h -2.13 z m 3.706,0 h 2.13 v -0.5112 h -2.13 z m 3.749,0 h 2.13 v -0.5112 h -2.13 z m 3.706,0 h 2.13 v -0.5112 h -2.13 z m 3.749,0 h 0.469 c 0.127,0 0.255,-0.086 0.255,-0.256 v -1.661 h -0.511 v 1.661 l 0.256,-0.256 h -0.469 z m 0.213,-3.494 h 0.5112 v -2.13 h -0.5112 z m 0.511,0 z m -0.511,-3.748 h 0.5112 v -2.13 h -0.5112 z m 0.511,0 z m -0.511,-3.707 h 0.5112 v -2.13 h -0.5112 z m 0.511,0 z m -0.511,-3.748 h 0.5112 v -2.13 h -0.5112 z m 0.511,0 z m -0.511,-3.707 h 0.5112 v -2.13 h -0.5112 z m 0.511,0 z m -1.619,-2.641 h -2.13 v 0.5538 h 2.13 z m -3.748,0 h -2.13 v 0.5538 h 2.13 z m -3.707,0 h -2.13 v 0.5538 h 2.13 z m -3.748,0 h -2.13 v 0.5538 h 2.13 z m -3.707,0 h -2.13 v 0.5538 h 2.13 z m -3.748,0 h -2.13 v 0.5538 h 2.13 z m -3.707,0 h -2.13 v 0.5538 h 2.13 z m -3.748,0 h -2.13 v 0.5538 h 2.13 z m -3.707,0 h -2.13 v 0.5538 h 2.13 z m -3.748,0 h -2.13 v 0.5538 h 2.13 z m -3.707,0 h -2.13 v 0.5538 h 2.13 z m -3.748,0 h -2.13 v 0.5538 h 2.13 z m -3.707,0 h -2.13 v 0.5538 h 2.13 z m -3.748,0 h -2.13 v 0.5538 h 2.13 z m -3.707,0 h -2.13 v 0.5538 h 2.13 z m -3.748,0 h -2.13 v 0.5538 h 2.13 z m -3.707,0 h -2.13 v 0.5538 h 2.13 z m -3.748,0 h -2.13 v 0.5538 h 2.13 z m -3.707,0 h -2.13 v 0.5538 h 2.13 z m -3.748,0 h -2.13 v 0.5538 h 2.13 z m -3.707,0 h -2.13 v 0.5538 h 2.13 z m -3.748,0 h -2.13 v 0.5538 h 2.13 z m -3.707,0 h -2.13 v 0.5538 h 2.13 z m -3.748,0 h -2.13 v 0.5538 h 2.13 z m -3.707,0 h -2.13 v 0.5538 h 2.13 z m -3.748,0 h -2.13 v 0.5538 h 2.13 z m -3.707,0 h -2.13 v 0.5538 h 2.13 z m -3.748,0 h -2.13 v 0.5538 h 2.13 z m -3.707,0 h -2.13 v 0.5538 h 2.13 z m -3.748,0 h -2.13 v 0.5538 h 2.13 z m -3.707,0 h -2.13 v 0.5538 h 2.13 z m -3.748,0 h -2.13 v 0.5538 h 2.13 z m -3.707,0 h -2.13 v 0.5538 h 2.13 z m -3.748,0 h -2.13 v 0.5538 h 2.13 z m -3.707,0 H 159 v 0.5538 h 2.13 z m -3.748,0 h -2.13 v 0.5538 h 2.13 z m -3.707,0 h -2.13 v 0.5538 h 2.13 z m -3.748,0 h -2.13 v 0.5538 h 2.13 z m -3.707,0 h -2.13 v 0.5538 h 2.13 z m -3.748,0 h -2.13 v 0.5538 h 2.13 z m -3.707,0 h -2.13 v 0.5538 h 2.13 z m -3.748,0 h -2.13 v 0.5538 h 2.13 z m -3.707,0 h -2.13 v 0.5538 h 2.13 z m -3.748,0 h -2.13 v 0.5538 h 2.13 z m -3.707,0 h -2.13 v 0.5538 h 2.13 z m -3.748,0 h -2.13 v 0.5538 h 2.13 z m -3.707,0 h -2.13 v 0.5538 h 2.13 z m -3.748,0 h -0.9372 v 0.5538 h 0.9372 z"
       style="fill:#000000;fill-opacity:1;fill-rule:nonzero;stroke:none"
       transform="matrix(0.35277732,0,0,-0.35277732,16.703803,323.74649)"
       clip-path="url(#clipPath64)" />
    <path
       id="path66"
       d="m 0,0 c 0,0.17 0.17,0.341 0.341,0.341 h 191.998 c 0.17,0 0.341,-0.171 0.341,-0.341 v -41.961 c 0,-0.17 -0.171,-0.341 -0.341,-0.341 H 0.341 C 0.17,-42.302 0,-42.131 0,-41.961 Z m 0.682,-41.961 -0.341,0.383 h 191.998 l -0.383,-0.383 V 0 l 0.383,-0.383 H 0.341 L 0.682,0"
       style="fill:#000000;fill-opacity:1;fill-rule:nonzero;stroke:none"
       transform="matrix(0.35277732,0,0,-0.35277732,53.303747,221.75609)"
       clip-path="url(#clipPath67)" />
    <path
       id="path68"
       d="M 0,0 45.113,32.845 44.687,33.398 -0.426,0.554"
       style="fill:#000000;fill-opacity:1;fill-rule:nonzero;stroke:none"
       transform="matrix(0.35277732,0,0,-0.35277732,121.21691,221.86122)"
       clip-path="url(#clipPath69)" />
    <path
       id="path70"
       d="M 0,0 43.75,32.845 43.324,33.398 -0.426,0.554"
       style="fill:#000000;fill-opacity:1;fill-rule:nonzero;stroke:none"
       transform="matrix(0.35277732,0,0,-0.35277732,53.514355,221.86122)"
       clip-path="url(#clipPath71)" />
    <path
       id="path72"
       d="M 0,0 45.028,33.271 44.602,33.867 -0.383,0.554"
       style="fill:#000000;fill-opacity:1;fill-rule:nonzero;stroke:none"
       transform="matrix(0.35277732,0,0,-0.35277732,121.23173,236.70927)"
       clip-path="url(#clipPath73)" />
    <path
       id="path74"
       d="m 104.132,267.296 h 18.318 v -1.065 h -18.318 z m 17.593,1.576 4.26,-2.13 -4.26,-2.13"
       style="fill:#000000;fill-opacity:1;fill-rule:nonzero;stroke:none"
       transform="matrix(0.35277732,0,0,-0.35277732,16.703803,323.74649)"
       clip-path="url(#clipPath75)" />
    <path
       id="path76"
       d="M 0,0 12.439,8.35 11.843,9.244 -0.554,0.895 Z m 12.78,6.646 2.343,4.132 -4.729,-0.597"
       style="fill:#000000;fill-opacity:1;fill-rule:nonzero;stroke:none"
       transform="matrix(0.35277732,0,0,-0.35277732,53.54434,229.69076)"
       clip-path="url(#clipPath77)" />
    <path
       id="path78"
       d="m 103.578,267.041 h 1.065 v 16.827 h -1.065 z m 1.065,0 z m 1.576,16.145 -2.13,4.26 -2.13,-4.26"
       style="fill:#000000;fill-opacity:1;fill-rule:nonzero;stroke:none"
       transform="matrix(0.35277732,0,0,-0.35277732,16.703803,323.74649)"
       clip-path="url(#clipPath79)" />
    <text
       id="text80"
       xml:space="preserve"
       transform="matrix(0.35277732,0,-0.12065233,0.35277732,215.06173,240.09014)"
       clip-path="url(#clipPath81)"><tspan
         style="font-variant:normal;font-weight:normal;font-size:8.52px;font-family:Cambria;writing-mode:lr-tb;fill:#000000;fill-opacity:1;fill-rule:nonzero;stroke:none"
         x="0"
         y="0"
         id="tspan80"></tspan></text>
    <text
       id="text82"
       xml:space="preserve"
       transform="matrix(0.35277732,0,-0.12065233,0.35277732,225.20584,246.7026)"
       clip-path="url(#clipPath83)"><tspan
         style="font-variant:normal;font-weight:normal;font-size:8.52px;font-family:Cambria;writing-mode:lr-tb;fill:#000000;fill-opacity:1;fill-rule:nonzero;stroke:none"
         x="0"
         y="0"
         id="tspan82"></tspan></text>
    <text
       id="text84"
       xml:space="preserve"
       transform="matrix(0.35277732,0,-0.12065233,0.35277732,222.8464,241.78834)"
       clip-path="url(#clipPath85)"><tspan
         style="font-variant:normal;font-weight:normal;font-size:8.52px;font-family:Cambria;writing-mode:lr-tb;fill:#000000;fill-opacity:1;fill-rule:nonzero;stroke:none"
         x="0"
         y="0"
         id="tspan84"></tspan></text>
    <path
       id="path86"
       d="M 0,0 4.26,-2.13 0,-4.26"
       style="fill:#000000;fill-opacity:1;fill-rule:nonzero;stroke:none"
       transform="matrix(0.35277732,0,0,-0.35277732,92.587972,223.00316)"
       clip-path="url(#clipPath87)" />
    <path
       id="path88"
       d="M 0,0 4.26,-2.13 0,-4.26"
       style="fill:#000000;fill-opacity:1;fill-rule:nonzero;stroke:none"
       transform="matrix(0.35277732,0,0,-0.35277732,95.563296,224.95684)"
       clip-path="url(#clipPath89)" />
    <path
       id="path90"
       d="m 231.633,271.599 h 1.1928 v -0.5112 h -1.1928 z m 0.469,1.874 4.26,-2.13 -4.26,-2.13"
       style="fill:#000000;fill-opacity:1;fill-rule:nonzero;stroke:none"
       transform="matrix(0.35277732,0,0,-0.35277732,16.703803,323.74649)"
       clip-path="url(#clipPath91)" />
    <path
       id="path92"
       d="m 0,0 -44.687,-32.546 0.639,-0.852 44.687,32.546 z m -45.071,-30.842 -2.172,-4.218 4.686,0.81"
       style="fill:#000000;fill-opacity:1;fill-rule:nonzero;stroke:none"
       transform="matrix(0.35277732,0,0,-0.35277732,101.45468,215.27875)"
       clip-path="url(#clipPath93)" />
    <path
       id="path94"
       d="m 340.732,280.545 h 0.72418 V 322.08 H 340.732 Z"
       style="fill:#000000;fill-opacity:1;fill-rule:nonzero;stroke:none"
       transform="matrix(0.35277732,0,0,-0.35277732,16.703803,323.74649)"
       clip-path="url(#clipPath95)" />
    <path
       id="path96"
       d="m 147.882,321.483 h 193.234 v 0.68158 H 147.882 Z"
       style="fill:#000000;fill-opacity:1;fill-rule:nonzero;stroke:none"
       transform="matrix(0.35277732,0,0,-0.35277732,16.703803,323.74649)"
       clip-path="url(#clipPath97)" />
    <g
       inkscape:label=""
       transform="translate(102.95751,212.19118)"
       id="g6"><g
   fill="#000000"
   fill-opacity="1"
   id="g5"
   transform="matrix(0.352778,0,0,0.352778,-0.907036,-0.707231)">
    <g
   id="g4"
   transform="translate(1.993,10.161)">
      <path
   d="M 4.375,-7.34375 C 4.484375,-7.796875 4.53125,-7.8125 5,-7.8125 h 1.546875 c 1.359375,0 1.359375,1.140625 1.359375,1.25 0,0.96875 -0.96875,2.203125 -2.546875,2.203125 h -1.71875 z m 2.015625,3.078125 C 7.703125,-4.5 8.875,-5.421875 8.875,-6.515625 8.875,-7.453125 8.0625,-8.15625 6.703125,-8.15625 H 2.875 c -0.234375,0 -0.34375,0 -0.34375,0.21875 0,0.125 0.109375,0.125 0.296875,0.125 0.71875,0 0.71875,0.09375 0.71875,0.21875 0,0.03125 0,0.09375 -0.046875,0.28125 L 1.890625,-0.890625 C 1.78125,-0.46875 1.75,-0.34375 0.921875,-0.34375 c -0.234375,0 -0.34375,0 -0.34375,0.21875 0,0.125 0.0625,0.125 0.3125,0.125 h 4.09375 C 6.8125,0 8.21875,-1.390625 8.21875,-2.59375 c 0,-0.984375 -0.859375,-1.578125 -1.828125,-1.671875 z m -1.6875,3.921875 h -1.625 c -0.15625,0 -0.1875,0 -0.25,-0.015625 -0.140625,-0.015625 -0.15625,-0.03125 -0.15625,-0.125 0,-0.09375 0.03125,-0.15625 0.046875,-0.265625 L 3.5625,-4.125 h 2.25 c 1.40625,0 1.40625,1.3125 1.40625,1.40625 0,1.15625 -1.03125,2.375 -2.515625,2.375 z m 0,0"
   id="path4" />

    </g>

  </g>

</g>
    <g
       inkscape:label=""
       transform="matrix(0.80004462,0,0,0.80004462,107.16129,228.47384)"
       id="g7"
       style="stroke-width:1.24993"><g
   fill="#000000"
   fill-opacity="1"
   id="g2"
   transform="matrix(0.352778,0,0,0.352778,-0.896011,-0.712744)"
   style="stroke-width:1.24993">
    <g
   id="use1"
   transform="translate(1.993,10.161)"
   style="stroke-width:1.24993">
      <path
   d="m 8.3125,-2.765625 c 0,-0.046875 0.046875,-0.125 0.046875,-0.171875 0,-0.0625 -0.046875,-0.125 -0.125,-0.125 C 8.1875,-3.0625 8.15625,-3.046875 8.125,-3.015625 8.109375,-3 8.109375,-2.96875 8,-2.734375 7.296875,-1.0625 6.78125,-0.34375 4.859375,-0.34375 H 3.125 c -0.171875,0 -0.203125,0 -0.265625,-0.015625 C 2.71875,-0.375 2.71875,-0.390625 2.71875,-0.484375 c 0,-0.09375 0.015625,-0.15625 0.046875,-0.265625 l 0.8125,-3.296875 h 1.1875 c 0.9375,0 1,0.203125 1,0.5625 0,0.109375 0,0.21875 -0.078125,0.578125 -0.015625,0.046875 -0.03125,0.09375 -0.03125,0.140625 0,0.078125 0.0625,0.109375 0.125,0.109375 0.109375,0 0.125,-0.078125 0.171875,-0.25 l 0.6875,-2.765625 c 0,-0.0625 -0.046875,-0.125 -0.125,-0.125 -0.109375,0 -0.125,0.046875 -0.171875,0.21875 C 6.109375,-4.65625 5.875,-4.40625 4.8125,-4.40625 H 3.671875 L 4.40625,-7.34375 C 4.515625,-7.75 4.546875,-7.796875 5.03125,-7.796875 h 1.703125 c 1.484375,0 1.78125,0.390625 1.78125,1.3125 0,0 0,0.34375 -0.046875,0.734375 -0.015625,0.046875 -0.03125,0.125 -0.03125,0.140625 0,0.09375 0.0625,0.140625 0.140625,0.140625 0.078125,0 0.125,-0.046875 0.140625,-0.265625 l 0.265625,-2.09375 C 8.984375,-7.859375 9,-7.984375 9,-8.015625 c 0,-0.125 -0.109375,-0.125 -0.328125,-0.125 H 2.84375 c -0.21875,0 -0.34375,0 -0.34375,0.21875 0,0.125 0.078125,0.125 0.28125,0.125 0.75,0 0.75,0.09375 0.75,0.21875 0,0.0625 -0.015625,0.109375 -0.046875,0.234375 l -1.625,6.453125 C 1.75,-0.46875 1.734375,-0.34375 0.890625,-0.34375 c -0.21875,0 -0.34375,0 -0.34375,0.21875 C 0.546875,0 0.625,0 0.859375,0 h 6 C 7.125,0 7.140625,-0.015625 7.21875,-0.203125 Z m 0,0"
   id="path2"
   style="stroke-width:1.24993" />

    </g>

  </g>

</g>
    <g
       inkscape:label=""
       transform="matrix(0.76070041,0,0,0.76070041,51.329172,221.55654)"
       id="g22"
       style="stroke-width:1.31457"><g
   fill="#000000"
   fill-opacity="1"
   id="g21"
   transform="matrix(0.352778,0,0,0.352778,-0.818841,-0.660885)"
   style="stroke-width:1.31457">
    <g
   id="g20"
   transform="translate(1.993,7.1389999)"
   style="stroke-width:1.31457">
      <path
   d="m 5.671875,-4.875 c -0.390625,0.0625 -0.53125,0.359375 -0.53125,0.578125 0,0.296875 0.21875,0.390625 0.390625,0.390625 0.359375,0 0.609375,-0.3125 0.609375,-0.640625 0,-0.5 -0.578125,-0.71875 -1.078125,-0.71875 -0.71875,0 -1.125,0.71875 -1.234375,0.9375 -0.28125,-0.890625 -1.015625,-0.9375 -1.234375,-0.9375 -1.21875,0 -1.859375,1.5625 -1.859375,1.828125 0,0.046875 0.046875,0.109375 0.125,0.109375 0.09375,0 0.125,-0.078125 0.140625,-0.125 0.40625,-1.328125 1.21875,-1.578125 1.5625,-1.578125 0.53125,0 0.640625,0.5 0.640625,0.78125 0,0.265625 -0.078125,0.546875 -0.21875,1.125 L 2.578125,-1.5 c -0.171875,0.71875 -0.515625,1.375 -1.15625,1.375 -0.0625,0 -0.359375,0 -0.609375,-0.15625 C 1.25,-0.359375 1.34375,-0.71875 1.34375,-0.859375 1.34375,-1.09375 1.15625,-1.25 0.9375,-1.25 c -0.296875,0 -0.609375,0.265625 -0.609375,0.640625 0,0.5 0.5625,0.734375 1.078125,0.734375 0.578125,0 0.984375,-0.453125 1.234375,-0.953125 C 2.828125,-0.125 3.4375,0.125 3.875,0.125 5.09375,0.125 5.734375,-1.453125 5.734375,-1.703125 5.734375,-1.765625 5.6875,-1.8125 5.625,-1.8125 5.515625,-1.8125 5.5,-1.75 5.46875,-1.65625 5.140625,-0.609375 4.453125,-0.125 3.90625,-0.125 3.484375,-0.125 3.265625,-0.4375 3.265625,-0.921875 3.265625,-1.1875 3.3125,-1.375 3.5,-2.15625 L 3.921875,-3.796875 C 4.09375,-4.5 4.5,-5.03125 5.0625,-5.03125 c 0.015625,0 0.359375,0 0.609375,0.15625 z m 0,0"
   id="path19"
   style="stroke-width:1.31457" />

    </g>

  </g>

</g>
    <g
       inkscape:label=""
       transform="matrix(0.76070041,0,0,0.76070041,61.647115,228.61236)"
       id="g25"
       style="stroke-width:1.31457"><g
   fill="#000000"
   fill-opacity="1"
   id="g24"
   transform="matrix(0.352778,0,0,0.352778,-0.818841,-0.661238)"
   style="stroke-width:1.31457">
    <g
   id="g23"
   transform="translate(1.993,7.1399999)"
   style="stroke-width:1.31457">
      <path
   d="m 3.140625,1.34375 c -0.3125,0.453125 -0.78125,0.859375 -1.375,0.859375 C 1.625,2.203125 1.046875,2.171875 0.875,1.625 c 0.03125,0.015625 0.09375,0.015625 0.109375,0.015625 0.359375,0 0.609375,-0.3125 0.609375,-0.59375 C 1.59375,0.78125 1.359375,0.6875 1.1875,0.6875 c -0.203125,0 -0.609375,0.140625 -0.609375,0.71875 0,0.609375 0.515625,1.03125 1.1875,1.03125 C 2.96875,2.4375 4.171875,1.34375 4.5,0.015625 L 5.671875,-4.65625 C 5.6875,-4.703125 5.71875,-4.78125 5.71875,-4.859375 5.71875,-5.03125 5.5625,-5.15625 5.390625,-5.15625 5.28125,-5.15625 5.03125,-5.109375 4.9375,-4.75 L 4.046875,-1.234375 C 4,-1.015625 4,-0.984375 3.890625,-0.859375 3.65625,-0.53125 3.265625,-0.125 2.6875,-0.125 c -0.671875,0 -0.734375,-0.65625 -0.734375,-0.96875 0,-0.6875 0.328125,-1.609375 0.65625,-2.46875 0.125,-0.34375 0.203125,-0.515625 0.203125,-0.75 0,-0.5 -0.359375,-0.953125 -0.953125,-0.953125 -1.09375,0 -1.53125,1.734375 -1.53125,1.828125 0,0.046875 0.046875,0.109375 0.125,0.109375 0.109375,0 0.125,-0.046875 0.171875,-0.21875 0.28125,-1 0.734375,-1.484375 1.203125,-1.484375 0.109375,0 0.3125,0 0.3125,0.390625 0,0.3125 -0.125,0.65625 -0.3125,1.109375 C 1.25,-1.953125 1.25,-1.5625 1.25,-1.28125 1.25,-0.140625 2.0625,0.125 2.65625,0.125 3,0.125 3.4375,0.015625 3.84375,-0.4375 l 0.015625,0.015625 C 3.6875,0.28125 3.5625,0.75 3.140625,1.34375 Z m 0,0"
   id="path22"
   style="stroke-width:1.31457" />

    </g>

  </g>

</g>
    <g
       inkscape:label=""
       transform="matrix(0.76070041,0,0,0.76070041,58.48102,224.20618)"
       id="g28"
       style="stroke-width:1.31457"><g
   fill="#000000"
   fill-opacity="1"
   id="g27"
   transform="matrix(0.352778,0,0,0.352778,-0.884987,-0.660885)"
   style="stroke-width:1.31457">
    <g
   id="g26"
   transform="translate(1.993,7.1389999)"
   style="stroke-width:1.31457">
      <path
   d="m 1.515625,-0.96875 c 0.515625,-0.578125 0.9375,-0.953125 1.53125,-1.5 C 3.765625,-3.078125 4.078125,-3.375 4.25,-3.5625 5.078125,-4.390625 5.5,-5.078125 5.5,-5.171875 c 0,-0.09375 -0.09375,-0.09375 -0.125,-0.09375 -0.078125,0 -0.109375,0.046875 -0.15625,0.125 C 4.90625,-4.625 4.625,-4.375 4.3125,-4.375 c -0.25,0 -0.375,-0.109375 -0.609375,-0.390625 -0.25,-0.296875 -0.453125,-0.5 -0.796875,-0.5 -0.875,0 -1.40625,1.078125 -1.40625,1.328125 0,0.046875 0.015625,0.109375 0.125,0.109375 0.09375,0 0.109375,-0.046875 0.140625,-0.125 0.203125,-0.484375 0.78125,-0.5625 1,-0.5625 0.265625,0 0.5,0.078125 0.75,0.1875 0.453125,0.1875 0.640625,0.1875 0.765625,0.1875 0.078125,0 0.125,0 0.1875,0 C 4.078125,-3.6875 3.4375,-3.109375 2.890625,-2.625 L 1.6875,-1.5 c -0.734375,0.734375 -1.171875,1.4375 -1.171875,1.53125 0,0.0625 0.0625,0.09375 0.125,0.09375 0.078125,0 0.09375,-0.015625 0.171875,-0.15625 0.1875,-0.296875 0.578125,-0.75 1.015625,-0.75 0.25,0 0.375,0.09375 0.609375,0.390625 C 2.671875,-0.125 2.875,0.125 3.25,0.125 c 1.171875,0 1.84375,-1.53125 1.84375,-1.796875 0,-0.046875 -0.015625,-0.125 -0.140625,-0.125 -0.09375,0 -0.09375,0.046875 -0.140625,0.171875 -0.265625,0.703125 -0.96875,0.984375 -1.4375,0.984375 -0.25,0 -0.484375,-0.078125 -0.734375,-0.1875 -0.484375,-0.1875 -0.609375,-0.1875 -0.765625,-0.1875 -0.125,0 -0.25,0 -0.359375,0.046875 z m 0,0"
   id="path25"
   style="stroke-width:1.31457" />

    </g>

  </g>

</g>
    <text
       xml:space="preserve"
       style="font-size:3.52779px;line-height:1;font-family:sans-serif;-inkscape-font-specification:sans-serif;text-align:start;text-anchor:start;fill:#0000ff;fill-rule:evenodd;stroke:#0000ff;stroke-width:0.529166"
       x="74.798462"
       y="214.13312"
       id="text28"><tspan
         sodipodi:role="line"
         id="tspan28"
         style="font-size:3.52779px;text-align:start;text-anchor:start;fill:#000000;fill-opacity:1;stroke:none;stroke-width:0.529166"
         x="74.798462"
         y="214.13312">External </tspan><tspan
         sodipodi:role="line"
         style="font-size:3.52779px;text-align:start;text-anchor:start;fill:#000000;fill-opacity:1;stroke:none;stroke-width:0.529166"
         x="74.798462"
         y="217.6609"
         id="tspan29">magn. field</tspan></text>
    <text
       xml:space="preserve"
       style="font-size:2.46945px;line-height:1;font-family:sans-serif;-inkscape-font-specification:sans-serif;text-align:end;text-anchor:end;fill:#0000ff;fill-rule:evenodd;stroke:#0000ff;stroke-width:0.529166"
       x="106.40476"
       y="230.50061"
       id="text28-4"><tspan
         sodipodi:role="line"
         id="tspan28-7"
         style="font-size:2.46945px;fill:#000000;fill-opacity:1;stroke:none;stroke-width:0.529166"
         x="107.27293"
         y="230.50061">Eddy currents     /  electrical field </tspan></text>
    <g
       inkscape:label=""
       transform="matrix(0.80004462,0,0,0.80004462,83.196546,228.51198)"
       id="g10"
       style="stroke-width:1.24993"><g
   fill="#000000"
   fill-opacity="1"
   id="g9"
   transform="matrix(0.352778,0,0,0.352778,-0.818841,-0.695193)"
   style="stroke-width:1.24993">
    <g
   id="g8"
   transform="translate(1.993,9.8299999)"
   style="stroke-width:1.24993">
      <path
   d="m 3.375,-1.703125 c 0,-0.0625 -0.046875,-0.109375 -0.109375,-0.109375 -0.109375,0 -0.125,0.03125 -0.1875,0.234375 -0.3125,1.09375 -0.796875,1.453125 -1.1875,1.453125 -0.140625,0 -0.3125,-0.03125 -0.3125,-0.390625 0,-0.328125 0.140625,-0.671875 0.28125,-1.03125 L 2.6875,-3.78125 c 0.03125,-0.09375 0.125,-0.3125 0.125,-0.53125 0,-0.5 -0.359375,-0.953125 -0.953125,-0.953125 -1.09375,0 -1.53125,1.734375 -1.53125,1.828125 0,0.046875 0.046875,0.109375 0.125,0.109375 0.109375,0 0.125,-0.046875 0.171875,-0.21875 0.28125,-1 0.734375,-1.484375 1.203125,-1.484375 0.109375,0 0.3125,0.015625 0.3125,0.390625 0,0.3125 -0.15625,0.703125 -0.25,0.96875 l -0.84375,2.21875 C 0.984375,-1.25 0.90625,-1.0625 0.90625,-0.84375 c 0,0.53125 0.375,0.96875 0.953125,0.96875 1.09375,0 1.515625,-1.75 1.515625,-1.828125 z m -0.09375,-5.75 c 0,-0.1875 -0.140625,-0.40625 -0.40625,-0.40625 -0.265625,0 -0.578125,0.265625 -0.578125,0.578125 0,0.296875 0.25,0.390625 0.390625,0.390625 0.328125,0 0.59375,-0.3125 0.59375,-0.5625 z m 0,0"
   id="path7"
   style="stroke-width:1.24993" />

    </g>

  </g>

</g>
  </g>
</svg>
